<?xml version="1.0" standalone="no"?>
<!DOCTYPE svg PUBLIC "-//W3C//DTD SVG 20010904//EN"
 "http://www.w3.org/TR/2001/REC-SVG-20010904/DTD/svg10.dtd">
<svg version="1.0" xmlns="http://www.w3.org/2000/svg"
 width="376.000000pt" height="428.000000pt" viewBox="0 0 376.000000 428.000000"
 preserveAspectRatio="xMidYMid meet">

<g transform="translate(0.000000,428.000000) scale(0.100000,-0.100000)"
fill="#000000" stroke="none">
<path d="M1145 4264 c-11 -3 -60 -12 -110 -21 -271 -49 -480 -191 -631 -428
-21 -33 -57 -80 -80 -105 -86 -93 -132 -198 -154 -355 -11 -70 -47 -164 -77
-197 -15 -17 -13 -18 33 -18 27 0 69 9 93 20 24 11 44 20 45 20 2 0 3 -15 3
-32 1 -18 4 -64 8 -101 5 -42 4 -76 -3 -90 -5 -12 -26 -57 -46 -100 -23 -51
-55 -98 -90 -135 -93 -98 -108 -120 -113 -166 -7 -63 21 -91 133 -131 l89 -31
0 -65 c1 -94 2 -96 44 -120 32 -18 40 -28 45 -62 4 -22 21 -65 38 -97 l32 -57
-25 -34 c-62 -84 -107 -186 -138 -320 -20 -86 -41 -258 -41 -328 l1 -36 13 30
c35 77 41 71 42 -37 0 -118 21 -193 98 -364 56 -124 86 -178 148 -269 98 -143
138 -204 138 -213 0 -5 -15 -21 -33 -35 -63 -49 -75 -67 -106 -161 -35 -109
-37 -126 -16 -165 27 -54 25 -53 631 -41 514 11 562 13 601 31 23 10 45 19 48
19 6 0 109 43 170 70 11 5 63 25 115 45 52 20 104 40 115 45 21 10 105 43 170
67 22 8 47 20 55 27 8 7 29 20 45 28 32 16 112 59 215 116 50 28 120 92 306
277 133 132 249 256 259 275 16 31 60 81 193 215 40 41 98 152 302 580 65 136
61 196 -19 292 -64 78 -189 192 -216 199 -15 4 -25 16 -29 35 -7 38 -93 124
-149 149 -23 11 -59 20 -79 20 -21 0 -38 4 -38 10 0 8 44 103 71 153 14 26 -8
21 -50 -12 -107 -84 -223 -151 -286 -167 l-30 -7 44 49 c55 62 107 172 116
247 l7 57 -28 -11 c-16 -6 -61 -12 -99 -12 -56 0 -79 4 -113 24 -23 13 -41 30
-40 37 6 30 245 105 402 127 61 8 114 19 118 23 15 15 -59 79 -128 112 -89 42
-208 56 -342 42 -53 -6 -108 -14 -122 -18 -22 -6 -21 -2 15 33 103 101 135
173 142 326 4 77 2 112 -6 120 -13 12 -15 11 -77 -68 l-24 -30 6 48 c14 105
-70 209 -231 285 -62 30 -145 61 -145 56 0 -2 23 -40 50 -84 28 -44 50 -92 50
-106 0 -26 -1 -27 -54 -21 -100 10 -198 77 -321 219 -109 127 -203 181 -465
266 -132 43 -405 74 -495 56z m322 -64 c155 -30 266 -65 363 -117 111 -60 137
-80 250 -195 131 -134 214 -183 330 -197 l55 -7 -40 -19 c-58 -29 -164 -27
-227 3 -26 12 -50 22 -53 22 -10 0 -65 41 -170 126 -201 163 -326 228 -510
266 -63 13 -368 6 -386 -8 -8 -6 -41 -16 -74 -23 -33 -8 -69 -18 -79 -23 -10
-6 -31 -14 -47 -18 -27 -8 -27 -7 -17 16 6 13 15 24 20 24 4 0 8 7 8 16 0 21
-43 14 -172 -31 -54 -18 -98 -32 -98 -29 0 6 104 78 145 100 196 105 457 140
702 94z m-679 -197 c-14 -9 -37 -33 -50 -54 -18 -30 -31 -38 -63 -44 -22 -3
-75 -23 -118 -44 -43 -22 -72 -33 -66 -25 21 25 132 110 169 129 89 45 187 74
128 38z m684 -25 c37 -12 65 -25 63 -29 -3 -4 -37 -15 -77 -24 -144 -35 -256
-112 -258 -178 0 -16 3 -16 36 -2 93 39 221 8 368 -89 98 -65 178 -96 245 -96
69 0 37 -18 -44 -25 -74 -7 -172 9 -255 40 -91 34 -281 0 -443 -80 -81 -40
-87 -42 -82 -22 8 27 72 87 143 134 28 19 52 37 52 40 0 7 -99 -6 -140 -19
-19 -6 -52 -22 -73 -35 l-39 -24 7 23 c18 56 106 199 139 227 22 18 20 33 -1
22 -10 -5 -61 -29 -113 -54 -114 -55 -208 -130 -274 -220 -26 -37 -53 -64 -58
-61 -15 10 -38 70 -38 101 l0 27 -31 -30 -31 -29 7 35 c4 19 13 45 21 58 40
62 -73 -25 -123 -96 -18 -25 -33 -50 -33 -56 0 -16 -53 -117 -81 -156 -34 -47
-109 -119 -143 -137 -27 -14 -28 -14 -21 3 21 50 45 139 51 186 12 94 88 218
188 303 63 55 115 86 201 120 56 23 164 49 171 42 2 -2 -17 -33 -41 -70 -24
-38 -48 -73 -52 -80 -4 -7 23 16 60 50 136 126 276 201 421 224 76 12 202 2
278 -23z m359 -170 c121 -93 213 -155 253 -172 20 -8 36 -19 36 -25 0 -14
-103 -24 -184 -18 -78 6 -148 33 -235 90 -29 20 -75 41 -102 47 -58 14 -63 27
-14 36 43 8 113 -2 162 -23 l37 -15 -16 24 c-10 15 -37 29 -82 42 -61 18 -75
19 -153 7 -47 -6 -88 -10 -90 -7 -7 7 111 65 155 76 20 5 62 8 93 6 52 -4 64
-9 140 -68z m766 -78 c78 -90 96 -184 49 -258 -27 -44 -96 -96 -149 -114 -17
-6 -36 -14 -42 -19 -29 -22 -233 -65 -415 -89 -137 -17 -262 -40 -274 -49 -6
-4 -29 -13 -52 -19 -104 -30 -235 -105 -321 -186 -78 -72 -2 65 82 149 33 33
87 74 120 92 72 38 189 83 219 84 17 0 16 2 -8 11 -42 15 -307 -8 -418 -37
-48 -13 -88 -21 -88 -19 0 10 112 74 172 98 158 64 240 76 543 85 306 9 405
25 499 77 65 36 79 62 74 128 -3 42 -12 63 -39 97 -28 37 -30 41 -8 24 14 -11
39 -36 56 -55z m189 -277 c-22 -154 -144 -270 -349 -330 -85 -25 -104 -27
-257 -25 -174 1 -365 -11 -437 -30 -65 -16 -63 -2 3 27 83 37 243 73 382 86
262 24 432 91 564 221 43 42 78 81 78 87 0 6 5 11 11 11 8 0 9 -15 5 -47z
m-1299 21 c2 -7 -15 -14 -42 -17 -55 -8 -139 -49 -181 -88 l-31 -30 -52 36
c-29 19 -58 35 -63 35 -27 0 18 29 70 45 31 9 68 21 82 25 36 13 213 7 217 -6z
m-774 -155 c-1 -4 -15 -9 -30 -12 -16 -3 -36 -9 -45 -12 -16 -6 -18 0 -18 47
0 30 2 57 5 60 7 6 92 -74 88 -83z m190 85 c20 -4 37 -10 37 -14 0 -4 -21 -13
-47 -20 -27 -6 -67 -18 -90 -25 -40 -13 -43 -13 -43 5 0 25 46 60 79 60 14 0
43 -3 64 -6z m-418 -60 c15 -20 41 -44 59 -55 17 -10 25 -19 17 -19 -8 0 -42
-13 -75 -29 -66 -31 -136 -98 -136 -131 0 -24 -15 -27 -24 -4 -11 30 -6 51 23
92 38 51 91 150 91 168 0 24 16 15 45 -22z m674 -66 c84 -83 121 -202 106
-348 -6 -60 -10 -70 -26 -70 -18 0 -19 2 -4 30 9 17 15 56 15 96 0 57 -4 74
-27 107 -28 40 -87 80 -137 91 -23 6 -27 11 -21 29 4 12 12 41 18 65 5 23 15
42 22 42 6 0 31 -19 54 -42z m-268 -25 c-38 -65 -36 -65 -294 -118 -65 -14
-122 -27 -128 -30 -5 -4 -9 0 -9 8 0 20 82 61 185 91 50 15 117 35 150 46 33
10 70 19 83 19 19 1 21 -2 13 -16z m2224 -147 c90 -38 86 -45 -40 -62 -64 -9
-276 -77 -342 -111 -32 -16 -53 -33 -53 -43 0 -18 38 -56 85 -85 l29 -18 -74
-34 c-125 -57 -308 -114 -402 -126 -89 -11 -90 -11 -109 13 -24 32 -70 112
-66 116 2 2 44 8 94 14 50 5 112 19 138 30 40 17 45 22 36 38 -13 24 -78 82
-92 82 -6 0 -9 5 -7 10 2 6 53 28 113 49 149 53 216 79 239 92 11 6 56 24 100
40 75 27 89 29 186 25 82 -4 118 -10 165 -30z m-2062 -37 c73 -38 84 -84 41
-177 l-26 -57 21 -43 c36 -73 25 -123 -39 -179 -14 -12 -37 -25 -52 -28 -32
-7 -35 -21 -12 -46 25 -27 29 -90 9 -130 -17 -34 -63 -89 -75 -89 -3 0 -23 25
-45 55 -22 30 -58 68 -80 83 -44 32 -124 62 -163 62 -13 0 -40 13 -58 30 -38
33 -99 53 -151 48 l-37 -3 45 -29 c51 -34 71 -55 63 -67 -7 -12 -255 -11 -329
1 -35 6 -67 18 -79 29 -18 19 -18 21 -2 46 10 15 45 54 77 87 47 47 72 86 115
173 30 62 60 130 67 150 l13 38 17 -36 c10 -20 26 -38 36 -42 14 -4 20 -19 24
-60 6 -58 34 -106 71 -123 16 -7 39 -6 80 5 45 11 68 12 108 3 29 -6 58 -15
65 -22 7 -6 13 -6 13 -1 0 5 -21 25 -46 44 l-45 34 28 22 c80 64 143 135 143
160 0 12 -8 14 -32 9 -63 -12 -273 -36 -303 -35 -16 1 29 9 100 19 200 27 308
49 324 65 18 18 83 20 114 4z m1024 -63 c35 -13 77 -35 95 -47 34 -24 124
-109 115 -109 -3 0 -52 11 -109 25 -57 14 -116 25 -132 25 -34 0 -146 -30
-146 -39 0 -3 20 -14 45 -24 53 -22 148 -120 195 -202 18 -31 30 -58 28 -60
-2 -2 -35 26 -73 63 -113 109 -208 169 -285 179 -22 3 -42 9 -45 13 -2 4 7 23
21 43 14 20 21 37 17 37 -12 0 -214 -70 -235 -81 -15 -8 -24 -7 -36 5 -10 9
-30 26 -46 39 l-28 23 98 46 c84 39 149 60 279 92 47 12 181 -4 242 -28z
m-1367 -71 c0 -18 -74 -68 -125 -85 -22 -7 -45 -16 -51 -21 -16 -13 -52 30
-56 66 l-3 30 99 7 c54 4 101 10 104 13 11 11 32 5 32 -10z m709 -140 c74 -38
50 -169 -48 -272 l-31 -32 -40 26 c-44 29 -45 37 -6 107 25 46 42 55 51 27 4
-12 15 -21 26 -21 19 0 19 1 5 16 -32 31 -13 74 33 74 23 0 24 1 10 16 -16 16
-27 13 -103 -24 -8 -4 1 74 11 91 7 12 62 8 92 -8z m-209 -135 c0 -40 -8 -71
-29 -115 -33 -68 -117 -168 -105 -125 4 14 8 48 9 76 2 46 6 55 38 83 43 38
61 88 54 148 l-5 45 19 -28 c13 -20 19 -47 19 -84z m497 67 c108 -81 240 -147
404 -202 74 -24 94 -27 164 -22 183 14 444 105 610 214 75 50 80 44 41 -41
-27 -60 -60 -110 -96 -146 -31 -32 -98 -76 -127 -85 -41 -12 -24 -25 32 -25
92 0 238 47 335 108 19 12 38 22 42 22 16 0 -41 -79 -95 -132 -57 -57 -58 -58
-30 -58 15 0 45 5 66 11 22 6 41 9 43 7 12 -13 -114 -155 -186 -209 -184 -138
-472 -161 -700 -56 -65 30 -196 106 -233 136 -150 120 -266 248 -360 399 -15
23 -23 42 -19 42 5 0 24 -23 42 -51 68 -106 207 -242 304 -298 78 -45 156 -66
246 -66 127 0 145 14 40 32 -82 13 -210 59 -210 75 0 5 21 8 48 8 61 1 116 14
150 36 l27 18 -30 7 c-298 74 -447 145 -562 266 -64 67 -29 73 54 10z m-142
-109 c45 -102 113 -236 137 -271 138 -197 286 -314 469 -372 44 -14 87 -25 95
-25 52 0 -106 -80 -195 -99 -109 -23 -265 -7 -322 33 -62 43 -33 -8 53 -93 47
-47 96 -83 178 -132 63 -38 174 -64 272 -64 l96 0 -46 -43 c-44 -41 -163 -132
-207 -159 -146 -89 -256 -126 -380 -126 -53 0 -101 5 -114 13 -19 9 -22 9 -19
0 2 -7 26 -24 53 -39 44 -22 60 -25 149 -24 56 1 121 6 146 11 76 18 182 49
238 71 28 12 52 19 52 16 0 -8 -105 -131 -144 -169 -37 -34 -108 -89 -161
-124 -44 -28 -153 -74 -220 -93 -172 -49 -382 -49 -579 -2 -149 36 -281 38
-346 6 -92 -46 -169 -134 -200 -228 -7 -22 -15 -44 -19 -50 -11 -18 -19 49
-20 167 -1 100 3 129 25 200 39 124 101 217 178 265 22 15 66 42 96 62 30 19
81 61 112 93 l57 57 47 -72 c118 -178 249 -275 431 -318 110 -26 234 -21 378
14 102 26 198 57 192 63 -1 2 -39 -3 -82 -11 -203 -37 -409 -27 -543 26 -62
25 -171 92 -215 133 l-28 26 63 -6 63 -6 -45 29 c-75 49 -109 88 -193 226 -25
39 -10 33 32 -14 80 -87 200 -139 147 -63 -16 23 -62 170 -71 229 l-6 40 33
-51 c53 -83 108 -142 186 -201 133 -100 294 -173 385 -173 58 0 42 18 -48 53
-109 44 -153 75 -212 149 -56 71 -90 133 -127 228 -45 119 -45 119 10 71 65
-57 160 -107 122 -63 -28 31 -86 155 -114 242 -14 47 -30 94 -34 105 -5 11
-11 34 -15 50 -6 28 -5 29 8 10 8 -11 23 -38 34 -60 117 -236 296 -437 473
-529 66 -35 200 -76 245 -76 43 0 27 17 -22 25 -67 9 -218 86 -296 150 -147
121 -268 294 -373 530 -9 22 -19 43 -21 47 -2 4 3 5 11 2 9 -3 16 -9 16 -13 0
-17 117 -146 185 -204 137 -117 284 -177 433 -177 92 0 98 10 18 29 -175 43
-357 229 -477 487 -56 120 -81 198 -73 229 3 14 10 25 14 25 4 0 20 -28 35
-62z m-305 -150 c41 -24 50 -41 50 -98 0 -81 -73 -245 -144 -325 -51 -56 -54
-53 -27 25 11 30 22 78 26 105 7 54 1 52 -34 -15 -21 -38 -113 -140 -127 -140
-5 0 -25 30 -44 66 l-35 65 40 32 c73 57 150 145 198 226 27 45 51 81 53 81 3
0 23 -10 44 -22z m-593 -45 c35 -13 93 -67 93 -87 0 -2 17 -31 38 -63 78 -118
262 -458 276 -510 16 -59 15 -65 -3 -31 -75 145 -174 310 -217 362 -87 106
-182 145 -302 125 -126 -20 -212 17 -212 92 0 30 5 42 25 55 14 9 25 22 25 30
0 48 173 65 277 27z m2616 -49 c63 -53 64 -50 -4 -191 -34 -70 -63 -130 -65
-132 -2 -2 -12 3 -22 12 -10 10 -24 17 -30 17 -20 0 -74 -119 -68 -146 8 -29
40 -64 60 -64 8 0 46 66 90 154 72 147 108 196 143 196 32 0 86 -35 142 -94
123 -126 123 -127 117 -173 -6 -49 -264 -591 -292 -614 -35 -29 -95 -7 -159
60 l-29 31 26 53 c14 28 42 87 62 129 41 86 48 94 66 73 18 -22 35 -18 55 11
31 48 45 102 34 132 -13 33 -48 72 -65 72 -7 0 -51 -79 -98 -175 -48 -96 -95
-179 -105 -185 -43 -22 -63 -11 -168 93 -126 125 -129 134 -80 238 115 245
165 340 208 397 28 35 59 82 70 104 19 37 23 40 51 34 16 -3 44 -18 61 -32z
m-2692 -240 c30 -9 61 -22 69 -30 12 -12 10 -14 -21 -14 -19 0 -59 -7 -89 -16
-105 -30 -103 -30 -133 15 -15 23 -25 46 -22 51 10 16 136 12 196 -6z m94
-129 c75 -26 164 -92 210 -156 41 -58 47 -75 46 -151 0 -111 -69 -214 -205
-306 -22 -16 -79 -54 -125 -85 -46 -32 -86 -55 -88 -53 -3 3 6 30 20 60 15 31
21 56 15 56 -21 0 -108 -74 -135 -114 -14 -22 -37 -77 -50 -121 l-23 -80 4
125 c3 90 10 143 26 189 21 64 73 165 91 176 17 11 -2 25 -33 25 -17 0 -46
-10 -65 -21 l-34 -21 6 38 c11 63 54 184 91 254 40 77 135 187 167 193 12 2
25 5 29 6 4 0 28 -6 53 -14z m2128 -46 c-23 -39 -128 -138 -173 -163 -19 -11
-66 -33 -105 -50 -68 -29 -74 -30 -240 -30 -234 -1 -305 16 -177 43 71 15 138
50 199 105 l51 46 97 0 c99 0 258 32 321 65 42 22 47 19 27 -16z m-40 -166
c-4 -10 -30 -52 -57 -93 -70 -104 -197 -228 -272 -267 -58 -30 -178 -63 -189
-51 -3 3 26 36 66 74 39 38 84 88 100 111 24 34 39 45 82 57 30 9 74 27 98 40
47 27 149 109 162 132 11 20 18 17 10 -3z m183 -288 c31 -66 71 -151 89 -190
76 -159 85 -183 85 -215 0 -29 -25 -57 -242 -276 -254 -256 -262 -262 -313
-228 -25 16 -47 59 -158 304 -14 30 -46 99 -71 153 -25 53 -46 101 -46 105 0
4 46 53 103 110 81 80 105 100 115 90 7 -7 12 -16 12 -20 0 -19 196 -424 209
-433 13 -8 57 27 94 74 32 41 31 50 -30 181 -25 52 -61 131 -81 175 -21 43
-47 100 -59 125 l-23 45 107 107 107 108 23 -48 c12 -26 48 -101 79 -167z
m-656 -474 c0 -38 3 -81 6 -97 5 -28 3 -30 -87 -64 -50 -19 -96 -36 -100 -38
-5 -2 -9 6 -9 17 0 12 -4 21 -8 21 -8 0 -197 -72 -237 -90 -11 -5 -65 -27
-120 -48 -55 -22 -117 -47 -137 -56 l-38 -16 0 78 0 78 33 13 c17 7 75 28 127
47 52 19 109 41 125 48 17 8 59 26 95 41 36 15 84 35 108 46 23 10 47 19 52
19 6 0 29 9 53 20 44 20 116 48 130 49 4 1 7 -30 7 -68z m-757 -208 c3 -5 -5
-37 -17 -73 l-21 -65 -70 -6 c-38 -4 -152 -7 -251 -8 -210 -1 -244 -6 -244
-32 0 -26 -26 -30 -162 -27 l-117 3 63 95 63 95 309 11 c429 15 442 15 447 7z
m606 -158 c1 -30 -2 -32 -111 -75 l-113 -45 0 -65 c0 -73 -1 -72 75 -45 107
37 120 47 120 88 0 27 5 39 18 44 9 3 50 19 91 35 41 16 76 26 79 24 2 -3 7
-54 10 -115 l5 -109 -50 -15 c-28 -8 -59 -20 -69 -26 -11 -6 -84 -36 -164 -66
-80 -31 -154 -60 -165 -65 -18 -9 -42 -18 -176 -70 l-47 -18 -6 31 c-3 16 -9
127 -13 247 l-6 217 59 22 c32 12 68 26 79 31 11 5 48 20 83 33 l62 25 0 -29
c0 -16 4 -29 10 -29 5 0 40 12 77 26 37 14 84 32 103 39 l35 13 7 -36 c4 -21
7 -51 7 -67z m-780 -108 c-41 -40 -125 -118 -185 -174 l-109 -103 51 0 c44 0
52 3 62 24 12 26 50 36 150 36 l64 0 -7 -32 c-4 -18 -11 -37 -15 -43 -4 -5
-13 -35 -20 -65 -7 -30 -17 -58 -23 -61 -5 -4 -107 -10 -226 -13 -119 -3 -284
-9 -368 -12 l-151 -5 19 63 c33 109 30 105 193 251 38 34 77 69 85 77 9 8 40
38 70 65 l53 50 152 6 c83 3 180 6 216 7 l65 1 -76 -72z"/>
</g>
</svg>
